<?xml version="1.0" encoding="utf-8"?>
<!-- Generator: Adobe Illustrator 16.0.4, SVG Export Plug-In . SVG Version: 6.00 Build 0)  -->
<!DOCTYPE svg PUBLIC "-//W3C//DTD SVG 1.1//EN" "http://www.w3.org/Graphics/SVG/1.1/DTD/svg11.dtd">
<svg version="1.1" id="Layer_1" xmlns="http://www.w3.org/2000/svg" xmlns:xlink="http://www.w3.org/1999/xlink" x="0px" y="0px"
	 width="36px" height="36px" viewBox="0 0 36 36" enable-background="new 0 0 36 36" xml:space="preserve">
<path fill="#27AAE1" d="M34.82,13.59v9.221c0,6.619-5.37,12-12,12h-9.21c-5.26,0-9.73-3.391-11.35-8.101
	c-0.29-0.84-0.49-1.72-0.59-2.63v-0.01c-0.04-0.42-0.06-0.83-0.06-1.262v-9.22c0-0.6,0.04-1.19,0.13-1.77
	c0.11-0.77,0.3-1.52,0.56-2.23c1.64-4.66,6.09-8,11.31-8h9.21C29.45,1.59,34.82,6.96,34.82,13.59z"/>
<path fill="#FFFFFF" d="M25.221,11.48c-6.391,3.12-12.431,0-12.431,0c-5.45,2.41-9.54,1.04-11.05,0.34c0.11-0.77,0.3-1.52,0.56-2.23
	C4.15,10.3,7.9,11.13,12.72,9c0,0,6.03,3.12,12.43,0L25.221,11.48z"/>
<path fill="#FFFFFF" d="M34.82,16.77v2.5c-5.932,2.25-11.25-0.5-11.25-0.5c-6.95,3.07-11.68,0-11.68,0l-0.07-2.479
	c0,0,4.73,3.069,11.67,0C23.49,16.29,28.85,19.061,34.82,16.77z"/>
<path fill="#FFFFFF" d="M24.18,25.811c-6.39,3.119-12.43,0-12.43,0C7.64,27.63,4.3,27.29,2.26,26.71c-0.29-0.84-0.49-1.72-0.59-2.63
	c1.96,0.65,5.52,1.229,10.01-0.75c0,0,6.03,3.12,12.429,0L24.18,25.811z"/>
</svg>
